<?xml version="1.0" encoding="UTF-8" standalone="no"?>
<!DOCTYPE svg PUBLIC "-//W3C//DTD SVG 1.1//EN"
 "http://www.w3.org/Graphics/SVG/1.1/DTD/svg11.dtd">
<!-- Generated by graphviz version 16.1.0 (20260904.0139)
 -->
<!-- Title: G Pages: 1 -->
<svg width="2320pt" height="1131pt"
 viewBox="0.00 0.00 2320.00 1131.00" xmlns="http://www.w3.org/2000/svg" xmlns:xlink="http://www.w3.org/1999/xlink">
<g id="graph0" class="graph" transform="scale(1 1) rotate(0) translate(28.8 1101.8)">
<title>G</title>
<polygon fill="white" stroke="none" points="-28.8,28.8 -28.8,-1101.8 2291.1,-1101.8 2291.1,28.8 -28.8,28.8"/>
<text xml:space="preserve" text-anchor="middle" x="1131.15" y="-1050" font-family="Helvetica,sans-Serif" font-weight="bold" font-size="20.00">ER diagram: Reservations and parking sessions</text>
<!-- reservation&#45;&#45;a_reservation_reservation_id -->
<g id="edge1" class="edge">
<title>reservation&#45;&#45;a_reservation_reservation_id</title>
<path fill="none" stroke="#555555" d="M772.56,-541.41C773.68,-574.31 775.94,-640.58 777.03,-672.79"/>
</g>
<!-- reservation&#45;&#45;a_reservation_reserved_from -->
<g id="edge2" class="edge">
<title>reservation&#45;&#45;a_reservation_reserved_from</title>
<path fill="none" stroke="#555555" d="M759.57,-541.62C742.05,-569.52 710.18,-620.25 693.23,-647.25"/>
</g>
<!-- reservation&#45;&#45;a_reservation_reserved_until -->
<g id="edge3" class="edge">
<title>reservation&#45;&#45;a_reservation_reserved_until</title>
<path fill="none" stroke="#555555" d="M727.95,-502.38C702.75,-491.12 671.68,-477.25 648.85,-467.06"/>
</g>
<!-- reservation&#45;&#45;a_reservation_status -->
<g id="edge4" class="edge">
<title>reservation&#45;&#45;a_reservation_status</title>
<path fill="none" stroke="#555555" d="M759.57,-502.38C741.76,-474.02 709.13,-422.07 692.4,-395.44"/>
</g>
<!-- reservation&#45;&#45;a_reservation_created_at -->
<g id="edge5" class="edge">
<title>reservation&#45;&#45;a_reservation_created_at</title>
<path fill="none" stroke="#555555" d="M772.56,-502.59C773.68,-469.69 775.94,-403.42 777.03,-371.21"/>
</g>
<!-- reservation&#45;&#45;r_parking_session_reservation -->
<g id="edge14" class="edge">
<title>reservation&#45;&#45;r_parking_session_reservation</title>
<path fill="none" stroke="black" stroke-width="1.2" d="M842.47,-522C932.74,-522 1087.81,-522 1175.17,-522"/>
<text xml:space="preserve" text-anchor="middle" x="864.22" y="-506.26" font-family="Helvetica,sans-Serif" font-weight="bold" font-size="13.00">1</text>
</g>
<!-- parking_session&#45;&#45;a_parking_session_session_id -->
<g id="edge6" class="edge">
<title>parking_session&#45;&#45;a_parking_session_session_id</title>
<path fill="none" stroke="#555555" d="M1708.4,-541.41C1709.24,-574.31 1710.93,-640.58 1711.75,-672.79"/>
</g>
<!-- parking_session&#45;&#45;a_parking_session_ticket_no -->
<g id="edge7" class="edge">
<title>parking_session&#45;&#45;a_parking_session_ticket_no</title>
<path fill="none" stroke="#555555" d="M1704.88,-502.51C1699.83,-469.98 1689.75,-405.06 1684.83,-373.31"/>
</g>
<!-- parking_session&#45;&#45;a_parking_session_entry_time -->
<g id="edge8" class="edge">
<title>parking_session&#45;&#45;a_parking_session_entry_time</title>
<path fill="none" stroke="#555555" d="M1715.71,-502.44C1727.97,-471.7 1751.58,-412.56 1763.41,-382.91"/>
</g>
<!-- parking_session&#45;&#45;a_parking_session_exit_time -->
<g id="edge9" class="edge">
<title>parking_session&#45;&#45;a_parking_session_exit_time</title>
<path fill="none" stroke="#555555" d="M1797.39,-538.27C1812.77,-541.07 1827.85,-543.81 1840.53,-546.11"/>
</g>
<!-- customer&#45;&#45;r_reservation_customer -->
<g id="edge20" class="edge">
<title>customer&#45;&#45;r_reservation_customer</title>
<path fill="none" stroke="black" stroke-width="1.2" d="M104.25,-722.3C183.42,-698.54 330.48,-654.43 387.98,-637.18"/>
<text xml:space="preserve" text-anchor="middle" x="122.17" y="-700.73" font-family="Helvetica,sans-Serif" font-weight="bold" font-size="13.00">1</text>
</g>
<!-- vehicle&#45;&#45;r_parking_session_vehicle -->
<g id="edge18" class="edge">
<title>vehicle&#45;&#45;r_parking_session_vehicle</title>
<path fill="none" stroke="black" stroke-width="1.2" d="M1257.11,-1007.47C1301.96,-959.16 1421.73,-830.19 1461.13,-787.75"/>
<text xml:space="preserve" text-anchor="middle" x="1264.47" y="-979.03" font-family="Helvetica,sans-Serif" font-weight="bold" font-size="13.00">1</text>
</g>
<!-- vehicle&#45;&#45;r_reservation_vehicle -->
<g id="edge24" class="edge">
<title>vehicle&#45;&#45;r_reservation_vehicle</title>
<path fill="none" stroke="black" stroke-width="1.2" d="M1222.69,-1007.47C1180.58,-962.12 1072.45,-845.66 1026.76,-796.47"/>
<text xml:space="preserve" text-anchor="middle" x="1200.46" y="-992.83" font-family="Helvetica,sans-Serif" font-weight="bold" font-size="13.00">1</text>
</g>
<!-- slot&#45;&#45;r_parking_session_slot -->
<g id="edge16" class="edge">
<title>slot&#45;&#45;r_parking_session_slot</title>
<path fill="none" stroke="black" stroke-width="1.2" d="M1257.11,-36.53C1302.39,-85.29 1423.99,-216.25 1462.23,-257.43"/>
<text xml:space="preserve" text-anchor="middle" x="1279.34" y="-39.97" font-family="Helvetica,sans-Serif" font-weight="bold" font-size="13.00">1</text>
</g>
<!-- slot&#45;&#45;r_reservation_slot -->
<g id="edge22" class="edge">
<title>slot&#45;&#45;r_reservation_slot</title>
<path fill="none" stroke="black" stroke-width="1.2" d="M1222.69,-36.53C1180.05,-82.45 1069.72,-201.27 1025.08,-249.35"/>
<text xml:space="preserve" text-anchor="middle" x="1215.33" y="-53.77" font-family="Helvetica,sans-Serif" font-weight="bold" font-size="13.00">1</text>
</g>
<!-- parking_pass&#45;&#45;r_parking_session_parking_pass -->
<g id="edge12" class="edge">
<title>parking_pass&#45;&#45;r_parking_session_parking_pass</title>
<path fill="none" stroke="black" stroke-width="1.2" d="M2124.02,-1007.47C2082.51,-959.05 1971.54,-829.58 1935.43,-787.45"/>
<text xml:space="preserve" text-anchor="middle" x="2102.16" y="-991.96" font-family="Helvetica,sans-Serif" font-weight="bold" font-size="13.00">1</text>
</g>
<!-- app_user&#45;&#45;r_parking_session_app_user -->
<g id="edge10" class="edge">
<title>app_user&#45;&#45;r_parking_session_app_user</title>
<path fill="none" stroke="black" stroke-width="1.2" d="M2190.41,-108.42C2143.4,-148.71 2031.73,-244.43 1983.15,-286.08"/>
<text xml:space="preserve" text-anchor="middle" x="2180.5" y="-124.67" font-family="Helvetica,sans-Serif" font-weight="bold" font-size="13.00">1</text>
</g>
<!-- r_parking_session_app_user&#45;&#45;parking_session -->
<g id="edge11" class="edge">
<title>r_parking_session_app_user&#45;&#45;parking_session</title>
<path fill="none" stroke="black" stroke-width="1.2" d="M1936.64,-325.93C1888.52,-367.19 1778.5,-461.48 1730.74,-502.43"/>
<text xml:space="preserve" text-anchor="middle" x="1740.65" y="-474.97" font-family="Helvetica,sans-Serif" font-weight="bold" font-size="13.00">N</text>
</g>
<!-- r_parking_session_parking_pass&#45;&#45;parking_session -->
<g id="edge13" class="edge">
<title>r_parking_session_parking_pass&#45;&#45;parking_session</title>
<path fill="none" stroke="black" stroke-width="1.2" d="M1912.29,-760.45C1876.36,-718.54 1766.91,-590.84 1724.73,-541.63"/>
<text xml:space="preserve" text-anchor="middle" x="1746.58" y="-545.94" font-family="Helvetica,sans-Serif" font-weight="bold" font-size="13.00">N</text>
</g>
<!-- r_parking_session_reservation&#45;&#45;parking_session -->
<g id="edge15" class="edge">
<title>r_parking_session_reservation&#45;&#45;parking_session</title>
<path fill="none" stroke="black" stroke-width="1.2" d="M1304.48,-522C1386.1,-522 1526.99,-522 1618.8,-522"/>
<text xml:space="preserve" text-anchor="middle" x="1597.05" y="-526.54" font-family="Helvetica,sans-Serif" font-weight="bold" font-size="13.00">1</text>
</g>
<!-- r_parking_session_slot&#45;&#45;parking_session -->
<g id="edge17" class="edge">
<title>r_parking_session_slot&#45;&#45;parking_session</title>
<path fill="none" stroke="black" stroke-width="1.2" d="M1486.97,-281.14C1524.87,-321.95 1645.23,-451.57 1691.24,-501.12"/>
<path fill="none" stroke="white" stroke-width="1.2" d="M1485.5,-282.5C1523.41,-323.31 1643.77,-452.93 1689.78,-502.48"/>
<path fill="none" stroke="black" stroke-width="1.2" d="M1484.04,-283.86C1521.94,-324.68 1642.3,-454.29 1688.31,-503.84"/>
<text xml:space="preserve" text-anchor="middle" x="1667.54" y="-487.84" font-family="Helvetica,sans-Serif" font-weight="bold" font-size="13.00">N</text>
</g>
<!-- r_parking_session_vehicle&#45;&#45;parking_session -->
<g id="edge19" class="edge">
<title>r_parking_session_vehicle&#45;&#45;parking_session</title>
<path fill="none" stroke="black" stroke-width="1.2" d="M1485.02,-759.09C1523.94,-717.18 1642.51,-589.48 1688.21,-540.27"/>
<path fill="none" stroke="white" stroke-width="1.2" d="M1486.48,-760.45C1525.4,-718.54 1643.97,-590.84 1689.67,-541.63"/>
<path fill="none" stroke="black" stroke-width="1.2" d="M1487.95,-761.81C1526.87,-719.9 1645.44,-592.2 1691.14,-542.99"/>
<text xml:space="preserve" text-anchor="middle" x="1682.3" y="-558.87" font-family="Helvetica,sans-Serif" font-weight="bold" font-size="13.00">N</text>
</g>
<!-- r_reservation_customer&#45;&#45;reservation -->
<g id="edge21" class="edge">
<title>r_reservation_customer&#45;&#45;reservation</title>
<path fill="none" stroke="black" stroke-width="1.2" d="M435.5,-620.83C490.13,-604.44 624.63,-564.09 705.87,-539.72"/>
<path fill="none" stroke="white" stroke-width="1.2" d="M436.08,-622.75C490.71,-606.36 625.2,-566.01 706.44,-541.64"/>
<path fill="none" stroke="black" stroke-width="1.2" d="M436.65,-624.66C491.28,-608.27 625.78,-567.93 707.02,-543.55"/>
<text xml:space="preserve" text-anchor="middle" x="688.52" y="-552" font-family="Helvetica,sans-Serif" font-weight="bold" font-size="13.00">N</text>
</g>
<!-- r_reservation_slot&#45;&#45;reservation -->
<g id="edge23" class="edge">
<title>r_reservation_slot&#45;&#45;reservation</title>
<path fill="none" stroke="black" stroke-width="1.2" d="M988.22,-291.98C943.9,-339.71 834.77,-457.23 791.48,-503.85"/>
<path fill="none" stroke="white" stroke-width="1.2" d="M986.75,-290.62C942.43,-338.35 833.3,-455.87 790.02,-502.49"/>
<path fill="none" stroke="black" stroke-width="1.2" d="M985.29,-289.26C940.97,-336.99 831.84,-454.51 788.55,-501.13"/>
<text xml:space="preserve" text-anchor="middle" x="797.38" y="-474.05" font-family="Helvetica,sans-Serif" font-weight="bold" font-size="13.00">N</text>
</g>
<!-- r_reservation_vehicle&#45;&#45;reservation -->
<g id="edge25" class="edge">
<title>r_reservation_vehicle&#45;&#45;reservation</title>
<path fill="none" stroke="black" stroke-width="1.2" d="M983.67,-753C938.37,-704.21 831.31,-588.92 788.55,-542.86"/>
<path fill="none" stroke="white" stroke-width="1.2" d="M985.13,-751.64C939.83,-702.85 832.78,-587.56 790.01,-541.5"/>
<path fill="none" stroke="black" stroke-width="1.2" d="M986.6,-750.28C941.3,-701.49 834.24,-586.2 791.48,-540.14"/>
<text xml:space="preserve" text-anchor="middle" x="812.24" y="-544.94" font-family="Helvetica,sans-Serif" font-weight="bold" font-size="13.00">N</text>
</g>
<!-- reservation -->
<g id="node1" class="node">
<title>reservation</title>
<polygon fill="#c9ddf2" stroke="black" stroke-width="2" points="841.65,-540.67 702.15,-540.67 702.15,-503.32 841.65,-503.32 841.65,-540.67"/>
<text xml:space="preserve" text-anchor="middle" x="771.9" y="-515.62" font-family="Helvetica,sans-Serif" font-size="15.00">RESERVATION</text>
</g>
<!-- parking_session -->
<g id="node2" class="node">
<title>parking_session</title>
<polygon fill="#c9ddf2" stroke="black" stroke-width="2" points="1796.4,-540.67 1619.4,-540.67 1619.4,-503.32 1796.4,-503.32 1796.4,-540.67"/>
<text xml:space="preserve" text-anchor="middle" x="1707.9" y="-515.62" font-family="Helvetica,sans-Serif" font-size="15.00">PARKING_SESSION</text>
</g>
<!-- customer -->
<g id="node3" class="node">
<title>customer</title>
<polygon fill="#f4f4f4" stroke="black" stroke-width="1.3" stroke-dasharray="5,2" points="103.8,-756 0,-756 0,-720 103.8,-720 103.8,-756"/>
<text xml:space="preserve" text-anchor="middle" x="51.9" y="-732.4" font-family="Helvetica,sans-Serif" font-size="13.00">CUSTOMER</text>
</g>
<!-- vehicle -->
<g id="node4" class="node">
<title>vehicle</title>
<polygon fill="#f4f4f4" stroke="black" stroke-width="1.3" stroke-dasharray="5,2" points="1283.18,-1044 1196.63,-1044 1196.63,-1008 1283.18,-1008 1283.18,-1044"/>
<text xml:space="preserve" text-anchor="middle" x="1239.9" y="-1020.4" font-family="Helvetica,sans-Serif" font-size="13.00">VEHICLE</text>
</g>
<!-- slot -->
<g id="node5" class="node">
<title>slot</title>
<polygon fill="#f4f4f4" stroke="black" stroke-width="1.3" stroke-dasharray="5,2" points="1271.55,-36 1208.25,-36 1208.25,0 1271.55,0 1271.55,-36"/>
<text xml:space="preserve" text-anchor="middle" x="1239.9" y="-12.4" font-family="Helvetica,sans-Serif" font-size="13.00">SLOT</text>
</g>
<!-- parking_pass -->
<g id="node6" class="node">
<title>parking_pass</title>
<polygon fill="#f4f4f4" stroke="black" stroke-width="1.3" stroke-dasharray="5,2" points="2204.55,-1044 2075.25,-1044 2075.25,-1008 2204.55,-1008 2204.55,-1044"/>
<text xml:space="preserve" text-anchor="middle" x="2139.9" y="-1020.4" font-family="Helvetica,sans-Serif" font-size="13.00">PARKING_PASS</text>
</g>
<!-- app_user -->
<g id="node7" class="node">
<title>app_user</title>
<polygon fill="#f4f4f4" stroke="black" stroke-width="1.3" stroke-dasharray="5,2" points="2262.3,-108 2161.5,-108 2161.5,-72 2262.3,-72 2262.3,-108"/>
<text xml:space="preserve" text-anchor="middle" x="2211.9" y="-84.4" font-family="Helvetica,sans-Serif" font-size="13.00">APP_USER</text>
</g>
<!-- a_reservation_reservation_id -->
<g id="node8" class="node">
<title>a_reservation_reservation_id</title>
<ellipse fill="white" stroke="black" cx="777.66" cy="-691.2" rx="54.72" ry="18"/>
<text xml:space="preserve" text-anchor="start" x="740.16" y="-687.75" font-family="Helvetica,sans-Serif" font-weight="bold" text-decoration="underline" font-size="11.00">reservation_id</text>
</g>
<!-- a_reservation_reserved_from -->
<g id="node9" class="node">
<title>a_reservation_reserved_from</title>
<ellipse fill="white" stroke="black" cx="681.9" cy="-665.28" rx="51.56" ry="18"/>
<text xml:space="preserve" text-anchor="middle" x="681.9" y="-660.83" font-family="Helvetica,sans-Serif" font-size="11.00">reserved_from</text>
</g>
<!-- a_reservation_reserved_until -->
<g id="node10" class="node">
<title>a_reservation_reserved_until</title>
<ellipse fill="white" stroke="black" cx="617.1" cy="-452.88" rx="50.21" ry="18"/>
<text xml:space="preserve" text-anchor="middle" x="617.1" y="-448.43" font-family="Helvetica,sans-Serif" font-size="11.00">reserved_until</text>
</g>
<!-- a_reservation_status -->
<g id="node11" class="node">
<title>a_reservation_status</title>
<ellipse fill="white" stroke="black" cx="681.9" cy="-378.72" rx="27" ry="18"/>
<text xml:space="preserve" text-anchor="middle" x="681.9" y="-374.27" font-family="Helvetica,sans-Serif" font-size="11.00">status</text>
</g>
<!-- a_reservation_created_at -->
<g id="node12" class="node">
<title>a_reservation_created_at</title>
<ellipse fill="white" stroke="black" cx="777.66" cy="-352.8" rx="40.29" ry="18"/>
<text xml:space="preserve" text-anchor="middle" x="777.66" y="-348.35" font-family="Helvetica,sans-Serif" font-size="11.00">created_at</text>
</g>
<!-- a_parking_session_session_id -->
<g id="node13" class="node">
<title>a_parking_session_session_id</title>
<ellipse fill="white" stroke="black" cx="1712.22" cy="-691.2" rx="43.45" ry="18"/>
<text xml:space="preserve" text-anchor="start" x="1684.1" y="-687.75" font-family="Helvetica,sans-Serif" font-weight="bold" text-decoration="underline" font-size="11.00">session_id</text>
</g>
<!-- a_parking_session_ticket_no -->
<g id="node14" class="node">
<title>a_parking_session_ticket_no</title>
<ellipse fill="#fff9c4" stroke="black" cx="1681.98" cy="-354.96" rx="35.33" ry="18"/>
<text xml:space="preserve" text-anchor="middle" x="1681.98" y="-350.51" font-family="Helvetica,sans-Serif" font-size="11.00">ticket_no</text>
</g>
<!-- a_parking_session_entry_time -->
<g id="node15" class="node">
<title>a_parking_session_entry_time</title>
<ellipse fill="white" stroke="black" cx="1770.54" cy="-365.04" rx="39.84" ry="18"/>
<text xml:space="preserve" text-anchor="middle" x="1770.54" y="-360.59" font-family="Helvetica,sans-Serif" font-size="11.00">entry_time</text>
</g>
<!-- a_parking_session_exit_time -->
<g id="node16" class="node">
<title>a_parking_session_exit_time</title>
<ellipse fill="white" stroke="black" cx="1874.22" cy="-552.24" rx="35.33" ry="18"/>
<text xml:space="preserve" text-anchor="middle" x="1874.22" y="-547.79" font-family="Helvetica,sans-Serif" font-size="11.00">exit_time</text>
</g>
<!-- r_parking_session_app_user -->
<g id="node17" class="node">
<title>r_parking_session_app_user</title>
<polygon fill="#ffe7a3" stroke="black" stroke-width="1.5" points="1959.9,-338 1901.9,-306 1959.9,-274 2017.9,-306 1959.9,-338"/>
<text xml:space="preserve" text-anchor="middle" x="1959.9" y="-307.55" font-family="Helvetica,sans-Serif" font-size="11.00">operates</text>
<text xml:space="preserve" text-anchor="middle" x="1959.9" y="-295.55" font-family="Helvetica,sans-Serif" font-size="11.00">gate for</text>
</g>
<!-- r_parking_session_parking_pass -->
<g id="node18" class="node">
<title>r_parking_session_parking_pass</title>
<polygon fill="#ffe7a3" stroke="black" stroke-width="1.5" points="1923.9,-792 1883.51,-774 1923.9,-756 1964.3,-774 1923.9,-792"/>
<text xml:space="preserve" text-anchor="middle" x="1923.9" y="-769.55" font-family="Helvetica,sans-Serif" font-size="11.00">covers</text>
</g>
<!-- r_parking_session_reservation -->
<g id="node19" class="node">
<title>r_parking_session_reservation</title>
<polygon fill="#ffe7a3" stroke="black" stroke-width="1.5" points="1239.9,-554 1176.65,-522 1239.9,-490 1303.15,-522 1239.9,-554"/>
<text xml:space="preserve" text-anchor="middle" x="1239.9" y="-523.55" font-family="Helvetica,sans-Serif" font-size="11.00">is</text>
<text xml:space="preserve" text-anchor="middle" x="1239.9" y="-511.55" font-family="Helvetica,sans-Serif" font-size="11.00">fulfilled by</text>
</g>
<!-- r_parking_session_slot -->
<g id="node20" class="node">
<title>r_parking_session_slot</title>
<polygon fill="#ffe7a3" stroke="black" stroke-width="1.5" points="1473.9,-288 1438.61,-270 1473.9,-252 1509.19,-270 1473.9,-288"/>
<text xml:space="preserve" text-anchor="middle" x="1473.9" y="-265.55" font-family="Helvetica,sans-Serif" font-size="11.00">hosts</text>
</g>
<!-- r_parking_session_vehicle -->
<g id="node21" class="node">
<title>r_parking_session_vehicle</title>
<polygon fill="#ffe7a3" stroke="black" stroke-width="1.5" points="1473.9,-792 1428.4,-774 1473.9,-756 1519.4,-774 1473.9,-792"/>
<text xml:space="preserve" text-anchor="middle" x="1473.9" y="-769.55" font-family="Helvetica,sans-Serif" font-size="11.00">parks in</text>
</g>
<!-- r_reservation_customer -->
<g id="node22" class="node">
<title>r_reservation_customer</title>
<polygon fill="#ffe7a3" stroke="black" stroke-width="1.5" points="411.9,-648 374.06,-630 411.9,-612 449.74,-630 411.9,-648"/>
<text xml:space="preserve" text-anchor="middle" x="411.9" y="-625.55" font-family="Helvetica,sans-Serif" font-size="11.00">books</text>
</g>
<!-- r_reservation_slot -->
<g id="node23" class="node">
<title>r_reservation_slot</title>
<polygon fill="#ffe7a3" stroke="black" stroke-width="1.5" points="1005.9,-302 955.4,-270 1005.9,-238 1056.4,-270 1005.9,-302"/>
<text xml:space="preserve" text-anchor="middle" x="1005.9" y="-271.55" font-family="Helvetica,sans-Serif" font-size="11.00">is</text>
<text xml:space="preserve" text-anchor="middle" x="1005.9" y="-259.55" font-family="Helvetica,sans-Serif" font-size="11.00">held by</text>
</g>
<!-- r_reservation_vehicle -->
<g id="node24" class="node">
<title>r_reservation_vehicle</title>
<polygon fill="#ffe7a3" stroke="black" stroke-width="1.5" points="1005.9,-806 938.9,-774 1005.9,-742 1072.9,-774 1005.9,-806"/>
<text xml:space="preserve" text-anchor="middle" x="1005.9" y="-775.55" font-family="Helvetica,sans-Serif" font-size="11.00">is</text>
<text xml:space="preserve" text-anchor="middle" x="1005.9" y="-763.55" font-family="Helvetica,sans-Serif" font-size="11.00">booked for</text>
</g>
</g>
</svg>
